<?xml version="1.0" encoding="utf-8"?>
<!-- Generator: Adobe Illustrator 24.0.2, SVG Export Plug-In . SVG Version: 6.00 Build 0)  -->
<svg version="1.1" id="Layer_1" xmlns="http://www.w3.org/2000/svg" xmlns:xlink="http://www.w3.org/1999/xlink" x="0px" y="0px"
	 viewBox="0 0 256 256" style="enable-background:new 0 0 256 256;" xml:space="preserve">
<style type="text/css">
	.st0{fill:#FCFCFC;}
</style>
<circle cx="128" cy="128" r="128"/>
<path class="st0" d="M202.9,123.7c-1.7,2.7-4,4.8-6.8,6.4c-2.8,1.6-6.1,2.4-10.1,2.4c-7.8,0-13.8-2.7-17.8-8
	c-4-5.3-5.9-13.6-5.9-24.8c0-7.5,0.9-13.6,2.7-18.5c1.7-4.9,4.4-8.5,7.9-10.9c3.5-2.4,7.9-3.5,13.1-3.5c3.9,0,7.3,0.8,10.1,2.3
	c2.8,1.6,5.1,3.7,6.8,6.3s2.9,5.5,3.5,8.7h7.1c-0.5-4.1-1.9-8-4.3-11.6c-2.4-3.5-5.5-6.5-9.5-8.6c-3.9-2.3-8.5-3.4-13.7-3.4
	c-6.7,0-12.3,1.5-16.9,4.5s-8.1,7.4-10.6,13.2c-1,2.3-1.7,4.9-2.3,7.7c-2.3-3.8-5.2-6.8-8.7-9.1c-4.7-3-10.4-4.5-16.9-4.5
	s-12.2,1.5-17,4.5c-3.6,2.3-6.6,5.4-9,9.3c-0.6-2.9-1.5-5.5-2.5-7.9C99.6,72.5,96,68,91.3,65s-10.4-4.5-16.8-4.5
	c-6.5,0-12.2,1.5-17,4.5c-4.8,3-8.5,7.5-11.1,13.3c-2.6,5.8-3.9,13-3.9,21.4c0,8.3,1.3,15.4,3.9,21.2c2.6,5.8,6.3,10.2,11,13.2
	c4.8,3,10.4,4.5,17,4.5c6.5,0,12.2-1.5,16.9-4.5c3.5-2.3,6.5-5.3,8.8-9.1c0.6,2.8,1.5,5.4,2.5,7.8c2.6,5.8,6.3,10.2,11,13.2
	c0.8,0.5,1.6,0.9,2.4,1.3c4.8,23.5-3.1,40.1-14.2,47.8c-9.3,6.5-31.4-2.5-31.9-21.6c-0.4-13.2,5.3-19.6,15.4-19.6
	s30.3,13.6,5.3,35.8c33.7-23.9,3.1-41.5-8.5-39.5c-10.3,1.8-17.4,11.6-16.9,22.6c1.3,34.4,58.2,50,59.1-22.9c1.9,0.3,4,0.5,6.1,0.5
	c1.9,0,3.8-0.1,5.6-0.4c0.9,72.7,57.8,57.2,59.1,22.8c0.4-11-6.6-20.8-16.9-22.6c-11.5-2-42.2,15.6-8.5,39.5
	c-24.9-22.2-4.7-35.8,5.3-35.8s15.8,6.5,15.4,19.6c-0.5,19.2-22.6,28.1-31.9,21.6c-11-7.7-18.9-24.2-14.2-47.6c1-0.5,1.9-1,2.9-1.6
	c4.7-3,8.3-7.4,10.9-13.2c1-2.3,1.8-4.7,2.4-7.3c2.2,3.7,4.9,6.5,8.3,8.7c4.6,3,10.3,4.5,16.9,4.5c4.1,0,7.7-0.7,11-2s6-3.1,8.3-5.3
	c2.3-2.2,4.2-4.7,5.5-7.6c1.3-2.8,2.2-5.7,2.6-8.7h-7.1C205.7,118.1,204.6,121,202.9,123.7z M95.9,118.1c-1.9,4.9-4.6,8.5-8.3,10.8
	c-3.6,2.3-8.1,3.5-13.3,3.5s-9.6-1.2-13.3-3.5c-3.7-2.3-6.5-5.9-8.4-10.8c-1.9-4.8-2.9-11-2.9-18.4c0-7.5,1-13.6,2.9-18.6
	c1.9-4.9,4.7-8.5,8.4-11c3.7-2.5,8.1-3.7,13.4-3.7c5.2,0,9.5,1.2,13.2,3.6c3.6,2.4,6.3,6,8.3,10.9c1.9,4.9,2.9,11.1,2.9,18.6
	C98.8,107.1,97.8,113.3,95.9,118.1z M152.2,129.9c-1.9,4.9-4.6,8.5-8.3,10.8c-3.6,2.3-8.1,3.5-13.3,3.5c-5.2,0-9.6-1.2-13.3-3.5
	c-3.7-2.3-6.5-5.9-8.4-10.8c-1.9-4.9-2.9-11-2.9-18.4c0-7.5,1-13.6,2.9-18.6c1.9-4.9,4.7-8.5,8.4-11c3.7-2.4,8.1-3.6,13.3-3.6
	s9.5,1.2,13.2,3.6c3.6,2.4,6.3,6,8.3,10.9c1.9,4.9,2.9,11.1,2.9,18.6C155,118.9,154,125,152.2,129.9z"/>
</svg>
