<?xml version="1.0" encoding="utf-8"?>
<!-- Generator: Adobe Illustrator 24.0.2, SVG Export Plug-In . SVG Version: 6.00 Build 0)  -->
<svg version="1.1" id="Layer_1" xmlns="http://www.w3.org/2000/svg" xmlns:xlink="http://www.w3.org/1999/xlink" x="0px" y="0px"
	 viewBox="0 0 256 211.3" style="enable-background:new 0 0 256 211.3;" xml:space="preserve">
<style type="text/css">
	.st0{fill:#FFFFFF;}
</style>
<path class="st0" d="M240.1,94.6c-2.6,4-6,7.2-10.2,9.6c-4.2,2.4-9.2,3.6-15.1,3.6c-11.7,0-20.6-4-26.6-12c-6-8-8.9-20.4-8.9-37.1
	c0-11.2,1.3-20.4,4-27.7c2.6-7.3,6.6-12.7,11.9-16.3c5.3-3.6,11.8-5.3,19.6-5.3c5.9,0,10.9,1.2,15.1,3.5c4.2,2.4,7.6,5.5,10.2,9.4
	c2.6,3.9,4.3,8.3,5.2,13H256c-0.7-6.2-2.8-12-6.4-17.3c-3.6-5.3-8.3-9.7-14.2-12.9C229.5,1.6,222.6,0,214.9,0
	c-10,0-18.4,2.2-25.3,6.7c-6.9,4.5-12.2,11.1-15.8,19.7c-1.5,3.5-2.6,7.4-3.5,11.5c-3.5-5.7-7.8-10.2-13.1-13.6
	c-7.1-4.5-15.5-6.8-25.3-6.8c-9.8,0-18.3,2.3-25.4,6.8c-5.4,3.5-9.9,8.1-13.5,14c-0.9-4.3-2.2-8.2-3.7-11.8
	C85.5,17.9,80.1,11.3,73,6.8C65.9,2.3,57.5,0,47.8,0c-9.8,0-18.3,2.3-25.4,6.8C15.2,11.3,9.7,18,5.8,26.7C1.9,35.4,0,46.1,0,58.7
	c0,12.5,1.9,23.1,5.8,31.8c3.9,8.7,9.4,15.2,16.5,19.7c7.2,4.5,15.6,6.7,25.5,6.7c9.8,0,18.2-2.3,25.3-6.8
	c5.3-3.4,9.7-7.9,13.2-13.7c0.9,4.2,2.2,8.1,3.8,11.7c3.9,8.7,9.4,15.2,16.5,19.7c1.2,0.7,2.4,1.4,3.6,2
	c7.2,35.2-4.7,60.1-21.2,71.6c-13.9,9.7-47-3.7-47.8-32.4c-0.6-19.7,7.9-29.3,23-29.3c15.1,0,45.3,20.4,8,53.6
	c50.5-35.8,4.6-62.1-12.7-59.1c-15.4,2.7-26,17.4-25.3,33.8c2,51.5,87.2,74.8,88.5-34.3c2.9,0.5,6,0.7,9.2,0.7
	c2.9,0,5.7-0.2,8.4-0.6c1.4,108.9,86.5,85.7,88.5,34.1c0.6-16.4-9.9-31.1-25.3-33.8c-17.2-3-63.2,23.3-12.7,59.1
	c-37.3-33.2-7.1-53.6,8-53.6c15.1,0,23.6,9.7,23,29.3c-0.8,28.7-33.9,42.1-47.8,32.4c-16.4-11.5-28.3-36.2-21.2-71.3
	c1.5-0.7,2.9-1.5,4.3-2.4c7.1-4.5,12.5-11.1,16.3-19.7c1.5-3.4,2.7-7,3.6-11c3.3,5.5,7.4,9.8,12.4,13.1c6.9,4.5,15.4,6.8,25.3,6.8
	c6.1,0,11.6-1,16.5-3c4.9-2,9-4.6,12.5-7.9c3.5-3.3,6.3-7.1,8.3-11.4c2-4.2,3.3-8.6,3.9-13.1h-10.7
	C244.4,86.2,242.7,90.6,240.1,94.6z M80,86.3c-2.8,7.3-6.9,12.7-12.4,16.2c-5.4,3.5-12.1,5.3-19.9,5.3c-7.8,0-14.4-1.8-19.9-5.3
	c-5.5-3.5-9.7-8.9-12.6-16.1c-2.9-7.2-4.4-16.4-4.4-27.5c0-11.2,1.5-20.4,4.4-27.8c2.9-7.3,7.1-12.8,12.6-16.4
	C33.4,11,40,9.2,47.8,9.2c7.8,0,14.3,1.8,19.7,5.4c5.4,3.6,9.5,9,12.4,16.3c2.9,7.3,4.3,16.6,4.3,27.9C84.2,69.8,82.8,79,80,86.3z
	 M164.2,103.9c-2.8,7.3-6.9,12.7-12.4,16.2c-5.4,3.5-12.1,5.3-19.9,5.3c-7.8,0-14.4-1.8-19.9-5.3c-5.5-3.5-9.7-8.9-12.6-16.1
	C96.5,96.7,95,87.5,95,76.4c0-11.2,1.5-20.4,4.4-27.8c2.9-7.3,7.1-12.8,12.6-16.4c5.5-3.6,12.1-5.4,19.9-5.4
	c7.8,0,14.3,1.8,19.7,5.4c5.4,3.6,9.5,9,12.4,16.3c2.9,7.3,4.3,16.6,4.3,27.9C168.4,87.5,167,96.6,164.2,103.9z"/>
</svg>
